<svg width="64" height="64" viewBox="0 0 64 64" fill="none" xmlns="http://www.w3.org/2000/svg">
<path d="M9.57703 41.73H12.807V43.355H9.57703V41.73ZM30.637 41.73H33.867V43.355H30.637V41.73ZM31.111 32.987H31.105C30.128 32.987 29.282 33.112 28.771 33.301L28.765 34.688C29.267 34.482 30.118 34.329 31.095 34.295L31.111 34.296V36.346L31.109 36.344L31.107 35.24C30.707 35.301 30.41 35.398 30.259 35.52L30.245 35.544C30.243 35.548 30.249 35.555 30.248 35.56C30.245 35.569 30.249 35.581 30.249 35.591L30.251 35.578C30.2502 35.5823 30.2495 35.5866 30.249 35.591L30.094 36.685C30.012 36.836 30.437 37.205 31.111 37.603V41.726H33.406V38.616C33.659 38.704 33.91 38.823 34.119 38.945C34.0175 39.0211 33.935 39.1198 33.8783 39.2334C33.8215 39.3469 33.792 39.4721 33.792 39.599C33.792 39.853 33.909 40.08 34.1 40.232C33.991 40.102 34.128 39.818 34.357 39.66C34.503 39.562 34.605 39.499 34.622 39.412L34.834 38.268V38.267C34.896 38.087 34.278 37.726 33.407 37.405V34.711C33.618 34.787 33.805 34.87 33.965 34.959C33.794 34.977 33.602 35 33.406 35L33.408 36.1C34.045 36.053 34.479 35.884 34.529 35.618L34.521 35.656L35.043 34.452C35.115 34.067 34.428 33.616 33.405 33.314V30.5H33.823V28.767H30.676V30.5H31.111V32.987M16.897 26.458L17.313 28.034C18.421 28.367 19.971 28.572 21.704 28.575C23.434 28.573 24.984 28.367 26.092 28.034L26.521 26.432C27.276 26.229 27.927 25.734 28.466 24.681L28.491 24.723C28.491 24.723 29.511 23.368 28.179 22.21C27.805 21.885 27.042 21.667 26.274 21.667C25.971 21.667 25.677 21.7 25.408 21.761C25.449 21.805 24.867 20.945 23.486 20.945C22.998 20.945 22.552 21.065 22.209 21.265L22.201 21.207C22.1746 21.1106 22.1204 21.0241 22.0452 20.9583C21.97 20.8925 21.8771 20.8503 21.778 20.837C21.8804 20.8252 21.9782 20.7881 22.0626 20.7289C22.147 20.6697 22.2152 20.5903 22.261 20.498H22.262L22.266 20.494L22.316 20.264L22.312 20.252C22.3066 20.1251 22.2604 20.0033 22.1802 19.9047C22.1001 19.8061 21.9902 19.7361 21.867 19.705V19.247H22.211V18.922H21.867V18.602H21.525V18.922H21.183V19.247H21.525V19.702C21.262 19.771 21.064 19.991 21.064 20.264L21.112 20.494L21.116 20.498H21.117C21.1623 20.5899 21.2298 20.6691 21.3135 20.7283C21.3971 20.7875 21.4943 20.8249 21.596 20.837C21.387 20.872 21.208 21.015 21.163 21.208L21.155 21.265C20.7656 21.0498 20.3269 20.9399 19.882 20.946C18.53 20.946 17.919 21.805 17.96 21.762C17.675 21.6988 17.3839 21.6672 17.092 21.668C12.904 21.668 14.555 24.264 14.836 24.667C15.404 25.776 16.094 26.272 16.897 26.458M26.274 21.903C28.344 21.933 28.711 23.264 28.315 23.899C27.639 23.442 26.669 23.109 25.62 22.881C25.7215 22.5812 25.7007 22.2535 25.562 21.969C25.785 21.927 26.027 21.9 26.274 21.903ZM23.486 21.179C24.983 21.179 25.406 22.113 25.16 22.786C24.16 22.598 23.149 22.495 22.324 22.458C22.279 22.032 22.247 21.586 22.241 21.526C22.553 21.312 22.994 21.179 23.486 21.179M19.883 21.179C20.373 21.179 20.813 21.312 21.126 21.525C21.12 21.586 21.088 22.03 21.042 22.456C20.247 22.487 19.271 22.584 18.288 22.762C18.096 22.093 18.444 21.179 19.883 21.179M21.698 27.437C23.261 27.439 24.68 27.609 25.756 27.888C24.681 28.165 23.262 28.346 21.698 28.348C20.136 28.347 18.724 28.165 17.649 27.888C18.725 27.609 20.137 27.439 21.698 27.437ZM17.093 21.903C17.342 21.903 17.582 21.926 17.805 21.97C17.7106 22.1007 17.6485 22.2521 17.624 22.4115C17.5995 22.5709 17.6132 22.7339 17.664 22.887C16.671 23.106 15.745 23.417 15.078 23.84C14.354 22.632 15.25 21.903 17.093 21.903ZM27.241 29.459C27.019 30.519 26.895 31.216 27.135 32.303C27.276 32.933 26.707 33.461 26.187 32.874C25.881 32.531 25.797 31.79 25.63 31.731C26.515 32.041 26.517 30.591 26.266 29.998V30C25.841 29.493 25.176 29.189 24.629 29.689C24.406 29.902 25.088 30.061 25.109 30.132C25.256 30.625 24.648 30.323 24.585 30.544C24.516 30.79 24.852 31.084 24.037 30.985C23.409 30.909 23.154 30.443 23.238 29.958C23.238 29.958 22.706 30.24 22.66 30.429C22.489 31.129 23.634 31.585 23.87 31.835C23.538 32.21 23.266 32.202 22.904 32.041C22.576 31.893 22.908 32.948 22.908 32.948C23.957 32.865 24.335 32.393 24.498 32.268C24.652 32.71 25.019 33.147 25.477 33.15C24.231 33.142 24.734 33.939 24.734 33.939C24.682 34.626 24.408 34.132 24.106 33.988C23.791 33.84 23.156 34.871 24.235 34.959C24.241 34.959 24.648 34.789 24.805 34.789C25.739 34.789 24.628 33.818 25.612 33.869C25.527 34.067 26.524 34.183 26.171 35.317C26.171 35.317 25.897 35.984 26.729 35.685C26.573 35.742 26.92 34.478 26.928 34.488C26.608 34.181 26.143 33.573 26.912 33.396C28.072 33.13 27.043 31.8 27.114 31.117C27.146 30.8 27.688 30.326 27.861 30.041C27.75 30.03 27.772 29.636 27.905 29.353C27.732 29.576 27.258 29.601 27.241 29.459M21.55 43.878L21.778 44.402L22.008 43.878L21.78 43.354L21.55 43.878ZM25.113 40.38L23.21 42.282L25.113 43.151V40.38ZM25.447 40.38V43.151L27.351 42.282L25.447 40.38ZM27.484 41.941V38.007L25.518 39.973L27.484 41.941ZM25.447 37.858V39.567L27.158 37.858H25.447Z" fill="#F5FFFF"/>
<path d="M8.61105 38.268L8.82405 39.413C8.84205 39.5 8.94105 39.563 9.08805 39.661C9.31705 39.819 9.45405 40.103 9.34705 40.233C9.44463 40.1557 9.52311 40.0569 9.57643 39.9444C9.62975 39.8319 9.65647 39.7086 9.65454 39.5841C9.6526 39.4596 9.62206 39.3372 9.56528 39.2264C9.50849 39.1156 9.42698 39.0193 9.32705 38.945C9.55454 38.8141 9.79354 38.7043 10.0411 38.617V41.727H12.3361V37.604C13.0091 37.206 13.4331 36.837 13.3531 36.686L13.1971 35.591C13.1965 35.5846 13.1955 35.5783 13.1941 35.572L13.1971 35.591C13.1971 35.576 13.2051 35.559 13.1991 35.545L13.1861 35.521C13.0361 35.399 12.7381 35.301 12.3401 35.241L12.3361 36.345V34.296L12.3521 34.295C13.3071 34.327 14.1331 34.476 14.6411 34.675V36.487H14.6391V36.54H15.4411V43.302C15.6581 43.556 15.9031 43.788 16.1891 43.973V36.5H17.0211L17.0411 44.363C17.2741 44.439 17.5181 44.49 17.7701 44.519V36.5H18.6001V44.521C18.8476 44.4947 19.0918 44.4434 19.3291 44.368L19.3501 36.5H19.4521C19.4551 37.1835 19.7154 37.8407 20.1811 38.341V43.978C20.4771 43.786 20.7291 43.543 20.9521 43.278L20.9381 38.869C21.1841 38.973 21.4481 39.036 21.7251 39.039V41.196C21.7251 43.054 23.3181 44.56 25.2791 44.56C27.2421 44.56 28.8341 43.054 28.8341 41.196V36.487H24.0351C24.0361 36.477 24.0381 36.468 24.0381 36.458C24.0381 35.032 23.0111 33.876 21.7431 33.876L21.7231 33.878V28.627H14.6401V33.293C14.1261 33.109 13.2961 32.989 12.3411 32.989H12.3351V30.501H12.7681V28.768H9.62105V30.501H10.0401V33.314C9.01705 33.617 8.32805 34.068 8.40005 34.453L8.92105 35.657L8.91405 35.619C8.96605 35.886 9.39905 36.055 10.0351 36.101L10.0401 35C9.84305 35 9.65005 34.977 9.48105 34.959C9.64005 34.87 9.82905 34.787 10.0401 34.71V37.404C9.16605 37.727 8.55005 38.088 8.61105 38.268M25.0421 39.973L23.3521 38.284C23.4271 38.201 23.4941 38.109 23.5581 38.014L25.1141 39.568L25.1121 37.859H23.6601C23.7231 37.751 23.7821 37.64 23.8301 37.522H27.8211V42.432L25.4481 43.524V43.526H25.1141V43.524L22.7401 42.432V38.774C22.8581 38.71 22.9701 38.633 23.0761 38.549V41.942L25.0421 39.973M22.4811 35.148L22.9041 36.226L22.6181 36.325L22.7501 36.699H22.2151L22.3501 36.325L22.0631 36.226L22.4811 35.148ZM21.7301 36.439L22.1531 37.517L21.8671 37.617L22.0021 37.99H21.4661L21.5981 37.617L21.3131 37.517L21.7301 36.439ZM20.9791 35.148L21.4021 36.226L21.1161 36.325L21.2491 36.699H20.7151L20.8481 36.325L20.5631 36.226L20.9791 35.148M16.1891 34.326H16.7111V32.238H16.4501V31.194H16.9391V30.835H16.7101V30.313H17.6881V30.835H17.4591V31.194H17.9491V30.052H17.6871V29.53H18.7001V30.052H18.4401V31.194H18.9301V30.835H18.7011V30.313H19.6791V30.835H19.4501V31.194H19.9391V32.238H19.6801V34.326H20.2021V34.555C19.9643 34.7986 19.7771 35.0868 19.6511 35.403H16.1891V34.326" fill="#F5FFFF"/>
<path d="M32 2C15.432 2 2 15.432 2 32C2 48.568 15.432 62 32 62C48.568 62 62 48.568 62 32C62 15.432 48.568 2 32 2ZM8.852 16.267H55.149C58.208 20.754 60 26.171 60 32C60 37.829 58.208 43.246 55.148 47.733H8.852C5.792 43.246 4 37.829 4 32C4 26.171 5.792 20.754 8.852 16.267Z" fill="#F5FFFF"/>
</svg>
