<svg width="15" height="20" viewBox="0 0 15 20" fill="none" xmlns="http://www.w3.org/2000/svg">
<g clip-path="url(#clip0_717_524)">
<path d="M3.35092 0H5.49386V0.896177H4.2471V1.79235H5.49397V2.68848H3.35092V0Z" fill="#F5FFFF"/>
<path d="M5.92248 0H8.06546V0.779281H6.81865V0.935126H8.06546V2.72748H5.92254V1.90914H7.16934V1.7533H5.92242V0H5.92248Z" fill="#F5FFFF"/>
<path d="M8.49414 0H10.6371V0.779281H9.39032V0.935126H10.6371V2.72748H8.49414V1.90914H9.74096V1.7533H8.4942V0H8.49414Z" fill="#F5FFFF"/>
<path fill-rule="evenodd" clip-rule="evenodd" d="M7.08284 19.9495L1.31098 18.3472L0.0247192 3.92056H14.1582L12.8706 18.3449L7.08284 19.9495ZM2.97339 10.4508L3.13195 12.2201H7.09145V12.2201H9.26408L9.05865 14.5149L7.08524 15.0475V15.0476L7.08366 15.0481L5.11313 14.516L4.98715 13.1048H3.21097L3.45884 15.883L7.08327 16.8891L7.09142 16.8869V16.8865L10.7126 15.883L10.7391 15.5841L11.155 10.9259L11.1982 10.4508L11.5175 6.86954H7.09142H7.08529H2.65469L2.81552 8.63889H7.08529V8.6389H9.57848L9.41748 10.4508H7.08529V10.4508H2.97339Z" fill="#F5FFFF"/>
</g>
<defs>
<clipPath id="clip0_717_524">
<rect width="14.1828" height="20" fill="white"/>
</clipPath>
</defs>
</svg>
