<svg width="14" height="20" viewBox="0 0 14 20" fill="none" xmlns="http://www.w3.org/2000/svg">
<g clip-path="url(#clip0_717_494)">
<path d="M3.33333 20C5.17333 20 6.66667 18.5067 6.66667 16.6667V13.3333H3.33333C1.49333 13.3333 0 14.8267 0 16.6667C0 18.5067 1.49333 20 3.33333 20Z" fill="#F5FFFF"/>
<path d="M0 10C0 8.16 1.49333 6.66667 3.33333 6.66667H6.66667V13.3333H3.33333C1.49333 13.3333 0 11.84 0 10Z" fill="#F5FFFF"/>
<path d="M0 3.33333C0 1.49333 1.49333 0 3.33333 0H6.66667V6.66667H3.33333C1.49333 6.66667 0 5.17333 0 3.33333Z" fill="#F5FFFF"/>
<path d="M6.66666 0H9.99999C11.84 0 13.3333 1.49333 13.3333 3.33333C13.3333 5.17333 11.84 6.66667 9.99999 6.66667H6.66666V0Z" fill="#F5FFFF"/>
<path d="M13.3333 10C13.3333 11.84 11.84 13.3333 9.99999 13.3333C8.15999 13.3333 6.66666 11.84 6.66666 10C6.66666 8.16 8.15999 6.66667 9.99999 6.66667C11.84 6.66667 13.3333 8.16 13.3333 10Z" fill="#F5FFFF"/>
</g>
<defs>
<clipPath id="clip0_717_494">
<rect width="13.3333" height="20" fill="white"/>
</clipPath>
</defs>
</svg>
