<svg width="24" height="24" viewBox="0 0 24 24" fill="none" xmlns="http://www.w3.org/2000/svg">
<path d="M19.52 2.48999C17.18 0.149988 12.9 0.619988 9.96997 3.54999C8.36997 5.14999 7.44997 7.41999 7.42997 9.00999C7.40997 10.59 7.68997 12.9 6.07997 14.51L1.83997 18.75L3.25997 20.17L7.49997 15.93C9.10997 14.32 11.42 14.6 13 14.58C14.58 14.56 16.86 13.64 18.46 12.04C21.38 9.10999 21.86 4.82999 19.52 2.48999V2.48999ZM10.32 11.68C8.78997 10.15 9.26997 7.06999 11.38 4.95999C13.49 2.84999 16.56 2.36999 18.1 3.89999C19.63 5.42999 19.15 8.50999 17.04 10.62C14.93 12.73 11.86 13.21 10.32 11.68V11.68ZM18 17C18.53 17 19.04 17.21 19.41 17.59C20.19 18.37 20.19 19.64 19.41 20.42C19.04 20.79 18.53 21 18 21C17.47 21 16.96 20.79 16.59 20.41C15.81 19.63 15.81 18.36 16.59 17.58C16.96 17.21 17.47 17 18 17ZM18 15C17.208 14.9984 16.4333 15.2321 15.7743 15.6714C15.1153 16.1107 14.6017 16.7359 14.2985 17.4676C13.9953 18.1993 13.9163 19.0045 14.0714 19.7812C14.2266 20.5579 14.6089 21.2709 15.17 21.83C15.95 22.61 16.98 23 18 23C18.792 23.0016 19.5666 22.7679 20.2256 22.3286C20.8846 21.8892 21.3983 21.2641 21.7015 20.5324C22.0046 19.8007 22.0836 18.9955 21.9285 18.2188C21.7733 17.4421 21.391 16.729 20.83 16.17C20.4583 15.7986 20.017 15.504 19.5314 15.3033C19.0458 15.1025 18.5254 14.9995 18 15V15Z" fill="#F5FFFF"/>
</svg>
