<svg width="48" height="48" viewBox="0 0 48 48" fill="none" xmlns="http://www.w3.org/2000/svg">
<mask id="mask0_735_546" style="mask-type:alpha" maskUnits="userSpaceOnUse" x="2" y="2" width="44" height="42">
<path fill-rule="evenodd" clip-rule="evenodd" d="M6 14C6 9.83215 9.23907 6.38008 13.3921 6.02933L18.7082 10.5269C19.4539 11.1577 20.5461 11.1577 21.2918 10.5269L26.6079 6.02933C30.7609 6.38008 34 9.83215 34 14C34 18.3986 30.3923 22 25.91 22H23C22.889 22 22.7802 22.009 22.6741 22.0264L22.33 19.97C22.14 18.83 21.15 18 20 18C19.4409 17.9982 18.8995 18.1954 18.4726 18.5564C18.0457 18.9173 17.7612 19.4184 17.67 19.97L17.3258 22.0264C17.2198 22.009 17.111 22 17 22H14.09C9.60768 22 6 18.3986 6 14ZM16.6608 26H14.09C7.43232 26 2 20.6414 2 14C2 7.35861 7.43232 2 14.09 2C14.563 2 15.0207 2.16763 15.3818 2.47313L20 6.38026L24.6182 2.47313C24.9793 2.16763 25.437 2 25.91 2C31.8844 2 36.872 6.31508 37.8329 12H44C45.1046 12 46 12.8954 46 14V32C46 37.5246 41.5246 42 36 42H26V44H14V36H26V38H36C39.3154 38 42 35.3154 42 32V16H37.8329C36.872 21.6849 31.8844 26 25.91 26H23.3391L23.55 27.26C23.78 28.69 22.67 30 21.22 30H18.78C17.32 30 16.21 28.69 16.45 27.26L16.6608 26Z" fill="white"/>
</mask>
<g mask="url(#mask0_735_546)">
<path d="M0 0H48V48H0V0Z" fill="#14323C"/>
</g>
</svg>
