<svg width="20" height="20" viewBox="0 0 20 20" fill="none" xmlns="http://www.w3.org/2000/svg">
<g clip-path="url(#clip0_717_536)">
<path d="M10 0C4.47719 0 0 4.47711 0 10C0 15.5229 4.47719 20 10 20C15.5229 20 20 15.5229 20 10C20 4.47711 15.5229 0 10 0ZM2.14875 10.1042L9.8957 17.8513C5.6418 17.7958 2.20414 14.3583 2.14875 10.1042V10.1042ZM11.7575 17.655L2.345 8.2425C3.14328 4.75187 6.26742 2.14742 10 2.14742C12.6091 2.14742 14.9207 3.42031 16.3487 5.37867L15.2614 6.33797C14.1031 4.67688 12.1786 3.58977 10 3.58977C7.22617 3.58977 4.86406 5.35164 3.97117 7.81734L12.1828 16.0288C14.177 15.3067 15.7106 13.6234 16.2242 11.5384H12.8206V10H17.8527C17.8527 13.7327 15.2483 16.8568 11.7576 17.6549L11.7575 17.655Z" fill="#F5FFFF"/>
</g>
<defs>
<clipPath id="clip0_717_536">
<rect width="20" height="20" fill="white"/>
</clipPath>
</defs>
</svg>
