<svg width="12" height="12" viewBox="0 0 12 12" fill="none" xmlns="http://www.w3.org/2000/svg">
<path d="M5.23 8.99997C5.07298 8.99905 4.91793 8.96497 4.775 8.89997C4.62041 8.83183 4.48871 8.72064 4.39561 8.57966C4.30252 8.43869 4.25197 8.2739 4.25 8.10497V3.89497C4.25197 3.72605 4.30252 3.56126 4.39561 3.42028C4.48871 3.27931 4.62041 3.16811 4.775 3.09997C4.95287 3.01596 5.15077 2.9836 5.34613 3.00658C5.5415 3.02957 5.72648 3.10697 5.88 3.22997L8.43 5.33497C8.53 5.41458 8.61075 5.51572 8.66626 5.63085C8.72177 5.74599 8.75059 5.87216 8.75059 5.99997C8.75059 6.12779 8.72177 6.25396 8.66626 6.36909C8.61075 6.48423 8.53 6.58536 8.43 6.66497L5.88 8.76997C5.69619 8.91904 5.46666 9.00026 5.23 8.99997Z" fill="#82969B"/>
</svg>
