<svg width="16" height="16" viewBox="0 0 16 16" fill="none" xmlns="http://www.w3.org/2000/svg">
<path d="M8.22359 15.9958H8.14343C7.04416 15.9874 5.95761 15.7598 4.94741 15.3263C3.9372 14.8927 3.02365 14.262 2.26025 13.471C0.844632 11.9571 0.0399315 9.97258 0.0014468 7.90033C-0.0370379 5.82808 0.693421 3.81501 2.05185 2.24965C2.92702 1.26886 4.02723 0.515214 5.25795 0.0534715C5.40155 -0.00178688 5.55802 -0.0145435 5.70868 0.016725C5.85934 0.0479934 5.99781 0.121965 6.10756 0.229807C6.20921 0.333461 6.2808 0.462777 6.31468 0.603946C6.34856 0.745114 6.34346 0.892833 6.29993 1.03133C5.86066 2.23437 5.77363 3.53773 6.04905 4.78849C6.32447 6.03925 6.95092 7.18551 7.85489 8.09276C8.76728 8.99394 9.91626 9.61828 11.1688 9.89347C12.4213 10.1687 13.7262 10.0835 14.9323 9.64771C15.0759 9.59718 15.2309 9.58856 15.3792 9.62287C15.5274 9.65718 15.6629 9.73299 15.7696 9.84145C15.8764 9.9499 15.9501 10.0865 15.9821 10.2353C16.0141 10.3841 16.003 10.5389 15.9503 10.6817C15.5408 11.7747 14.9012 12.767 14.0747 13.5912C13.3059 14.3577 12.3932 14.9647 11.3891 15.3774C10.385 15.79 9.30919 16.0002 8.22359 15.9958Z" fill="#14323C"/>
</svg>
