<svg width="23" height="20" viewBox="0 0 23 20" fill="none" xmlns="http://www.w3.org/2000/svg">
<g clip-path="url(#clip0_14_313)">
<path d="M18.4634 6.47596C18.2244 6.39396 17.9834 6.318 17.7406 6.24815C17.7814 6.08148 17.8189 5.91683 17.8523 5.75508C18.3995 3.09885 18.0418 0.95894 16.8199 0.254378C15.6484 -0.42106 13.7325 0.283238 11.7976 1.96719C11.6069 2.13344 11.4205 2.30449 11.2384 2.48017C11.1165 2.36335 10.9925 2.2488 10.8664 2.13657C8.83851 0.336045 6.80588 -0.422815 5.58535 0.283764C4.41491 0.961308 4.06833 2.97297 4.56097 5.49034C4.60998 5.73966 4.66532 5.9877 4.72693 6.2342C4.43921 6.31596 4.16158 6.40297 3.89588 6.49561C1.51833 7.32455 0 8.62359 0 9.97104C0 11.3627 1.63 12.7586 4.10632 13.605C4.30708 13.6733 4.50951 13.7367 4.71342 13.7949C4.6472 14.0604 4.5884 14.3277 4.53711 14.5965C4.06746 17.0702 4.43421 19.0343 5.60149 19.7075C6.80711 20.4028 8.83061 19.6882 10.8009 17.9659C10.9606 17.8258 11.1169 17.6819 11.2695 17.534C11.4666 17.7243 11.669 17.9089 11.8765 18.0879C13.7851 19.7302 15.67 20.3933 16.8361 19.7182C18.0406 19.021 18.4321 16.911 17.9239 14.3439C17.8838 14.1427 17.8389 13.9426 17.7892 13.7437C17.9313 13.7016 18.0708 13.6582 18.2068 13.6131C20.7811 12.7603 22.4561 11.3813 22.4561 9.97104C22.4561 8.61868 20.8888 7.31087 18.4634 6.47596ZM17.9051 12.7026C17.7823 12.7432 17.6563 12.7824 17.5279 12.8206C17.2437 11.9209 16.8602 10.9642 16.3908 9.97569C16.8387 9.01078 17.2075 8.06631 17.4837 7.17245C17.7134 7.23894 17.9363 7.30903 18.1512 7.38297C20.2293 8.09841 21.4968 9.15604 21.4968 9.97104C21.4968 10.8391 20.1279 11.966 17.9051 12.7026ZM16.9828 14.5302C17.2075 15.6653 17.2396 16.6916 17.0907 17.4939C16.957 18.2149 16.6881 18.6955 16.3554 18.8881C15.6478 19.2977 14.1344 18.7653 12.5022 17.3607C12.3092 17.1943 12.121 17.0226 11.9375 16.8458C12.5704 16.1538 13.2027 15.3493 13.8199 14.4558C14.9055 14.3595 15.9311 14.2019 16.8612 13.9869C16.907 14.1717 16.9477 14.353 16.9828 14.5302ZM7.65579 18.8173C6.96439 19.0614 6.41368 19.0684 6.08079 18.8765C5.37246 18.468 5.07798 16.8909 5.47965 14.7754C5.5274 14.5255 5.58207 14.2768 5.6436 14.0299C6.56342 14.2334 7.58158 14.3797 8.66974 14.468C9.29114 15.3423 9.94175 16.1459 10.5975 16.8496C10.4581 16.9844 10.3155 17.1158 10.1696 17.2436C9.29833 18.0052 8.42526 18.5455 7.65579 18.8173ZM4.41667 12.6973C3.32167 12.323 2.41737 11.8366 1.79754 11.3058C1.24053 10.8289 0.959386 10.3553 0.959386 9.97104C0.959386 9.15333 2.17842 8.11034 4.21167 7.40148C4.45842 7.31552 4.71667 7.23438 4.98465 7.15824C5.2657 8.07227 5.6343 9.02797 6.07912 9.99438C5.62851 10.9751 5.25465 11.946 4.97088 12.8709C4.78475 12.8176 4.59995 12.7597 4.41667 12.6973ZM5.50246 5.30604C5.08044 3.14929 5.3607 1.52236 6.06605 1.11403C6.81728 0.679115 8.47851 1.2992 10.2295 2.85394C10.3437 2.95555 10.456 3.05922 10.5664 3.1649C9.91395 3.86552 9.2693 4.66315 8.65342 5.53227C7.59728 5.63017 6.58632 5.78736 5.65684 5.99797C5.59958 5.76869 5.5481 5.53801 5.50246 5.30613V5.30604ZM15.189 7.69797C14.9695 7.31876 14.7418 6.94431 14.5061 6.5749C15.2226 6.66552 15.9091 6.78578 16.5538 6.9328C16.3603 7.55315 16.119 8.20166 15.8351 8.86657C15.6275 8.47278 15.4121 8.08317 15.189 7.69797ZM11.2389 3.85052C11.6813 4.3299 12.1245 4.86508 12.5604 5.44578C11.6761 5.40402 10.7905 5.40385 9.90623 5.44526C10.3425 4.8699 10.7895 4.33543 11.2389 3.85052ZM7.26333 7.70455C7.04301 8.08665 6.83164 8.47383 6.62939 8.86578C6.35009 8.20324 6.11105 7.55175 5.91588 6.92262C6.55658 6.77929 7.23982 6.6621 7.95175 6.57315C7.71346 6.94481 7.48392 7.32202 7.26333 7.70447V7.70455ZM7.97219 13.4372C7.23667 13.3551 6.54316 13.2439 5.90263 13.1045C6.10088 12.4641 6.34518 11.7988 6.63053 11.122C6.83358 11.5143 7.04583 11.9017 7.26711 12.2839C7.49465 12.6769 7.73026 13.0618 7.97219 13.4372ZM11.2654 16.1591C10.8106 15.6686 10.3571 15.1259 9.91421 14.5422C10.3442 14.559 10.7825 14.5676 11.2281 14.5676C11.6858 14.5676 12.1382 14.5574 12.5836 14.5375C12.1463 15.1317 11.7048 15.6753 11.2654 16.1591ZM15.8441 11.0874C16.1443 11.7717 16.3973 12.4335 16.5982 13.0629C15.9471 13.2115 15.2441 13.3311 14.5034 13.42C14.7408 13.0437 14.9706 12.6628 15.1928 12.2774C15.4187 11.8856 15.6359 11.4889 15.8441 11.0874ZM14.3618 11.7981C14.0217 12.389 13.6624 12.9687 13.2846 13.5362C12.6001 13.5847 11.9142 13.6088 11.2281 13.6084C10.5292 13.6084 9.84947 13.5867 9.19491 13.5442C8.80721 12.978 8.44107 12.3973 8.09728 11.8033H8.09737C7.75519 11.2125 7.43558 10.609 7.13921 9.99394C7.43482 9.37875 7.75347 8.77491 8.09447 8.18368L8.09439 8.18376C8.43526 7.59238 8.79848 7.01416 9.18325 6.45034C9.85105 6.39982 10.5359 6.3735 11.228 6.3735H11.2281C11.9233 6.3735 12.609 6.40008 13.2767 6.45096C13.6575 7.01393 14.0184 7.59016 14.3587 8.17859C14.7008 8.76852 15.0237 9.36942 15.3268 9.98034C15.0268 10.5975 14.705 11.2038 14.3618 11.7981ZM16.3408 1.08543C17.0927 1.51911 17.3852 3.26797 16.9127 5.5614C16.8825 5.70771 16.8487 5.85675 16.8118 6.00789C15.8801 5.7928 14.8684 5.63289 13.8092 5.5335C13.1922 4.65482 12.5528 3.85596 11.911 3.16438C12.0792 3.00223 12.2514 2.84429 12.4275 2.69069C14.0854 1.24797 15.6348 0.678326 16.3408 1.08543ZM11.2281 7.96578C12.3355 7.96578 13.2333 8.86359 13.2333 9.97104C13.2333 11.0785 12.3355 11.9763 11.2281 11.9763C10.1206 11.9763 9.22281 11.0785 9.22281 9.97104C9.22281 8.86359 10.1206 7.96578 11.2281 7.96578Z" fill="#F5FFFF"/>
</g>
<defs>
<clipPath id="clip0_14_313">
<rect width="22.4561" height="20" fill="white"/>
</clipPath>
</defs>
</svg>
