<svg width="32" height="32" viewBox="0 0 32 32" fill="none" xmlns="http://www.w3.org/2000/svg">
<path fill-rule="evenodd" clip-rule="evenodd" d="M13.6788 7.09727C15.0041 6.37413 16.4903 5.99675 18 6.00002C19.3449 5.99942 20.6729 6.30039 21.8861 6.88077C23.0993 7.46115 24.167 8.30618 25.0106 9.35367C25.8541 10.4012 26.452 11.6245 26.7604 12.9336C27.0687 14.2427 27.0796 15.6042 26.7923 16.9181C26.5049 18.2319 25.9266 19.4647 25.1 20.5255C24.2733 21.5864 23.2193 22.4484 22.0155 23.0481C20.8117 23.6478 19.4887 23.97 18.144 23.9909C16.7992 24.0119 15.4669 23.731 14.245 23.169L10.414 27L9 25.586L12.487 22.099C11.8945 21.6382 11.3618 21.1055 10.901 20.513L2.414 29L1 27.585L9.831 18.755C9.19657 17.3851 8.91775 15.8773 9.02029 14.371C9.12283 12.8648 9.60343 11.4087 10.4177 10.1373C11.2319 8.86597 12.3535 7.82041 13.6788 7.09727ZM18 22C19.3101 22 20.5361 21.6401 21.5846 21.0138L11.1686 13.4663C11.0582 13.9599 11 14.4731 11 15C11 18.866 14.134 22 18 22ZM11.9151 11.5373L23.1846 19.7033C23.5435 19.308 23.8577 18.8713 24.1195 18.4014L12.863 10.2449C12.5001 10.6367 12.1815 11.0702 11.9151 11.5373ZM14.4811 8.94748C15.515 8.3451 16.7172 8.00003 18 8.00003C21.866 8.00003 25 11.134 25 15C25 15.5004 24.9475 15.9886 24.8477 16.4592L14.4811 8.94748Z" fill="#F5FFFF"/>
<circle cx="27.5" cy="5.5" r="2.5" fill="#50DCA0"/>
</svg>
