<svg width="15" height="20" viewBox="0 0 15 20" fill="none" xmlns="http://www.w3.org/2000/svg">
<g clip-path="url(#clip0_717_513)">
<path d="M1.33957 0H2.23874V0.888364H3.06129V0H3.96051V2.69019H3.06134V1.78936H2.23879V2.69019H1.33962V0H1.33957Z" fill="#F5FFFF"/>
<path d="M5.143 0.892132H4.35153V0H6.8343V0.892132H6.04234V2.69019H5.14317V0.892132H5.14311H5.143Z" fill="#F5FFFF"/>
<path d="M7.22827 0H8.16583L8.74256 0.945262L9.31874 0H10.2567V2.69019H9.36118V1.35678L8.74256 2.31329H8.72705L8.10805 1.35678V2.69019H7.22827V0Z" fill="#F5FFFF"/>
<path d="M10.7042 0H11.6036V1.80099H12.8681V2.69019H10.7041V0H10.7042Z" fill="#F5FFFF"/>
<path fill-rule="evenodd" clip-rule="evenodd" d="M14.1582 3.92056L12.8706 18.3449L7.08277 19.9495L1.31092 18.3472L0.0246582 3.92056H14.1582ZM4.58838 8.6389H7.09142V8.63889H11.3591L11.3946 8.24122L11.4753 7.34422L11.5175 6.86954H7.09142H7.0853H2.65469L2.69702 7.34422L3.13192 12.2201H7.09142L9.26407 12.2201L9.05864 14.5149L7.08524 15.0475V15.0476L7.08366 15.0481L5.11313 14.516L4.98715 13.1048H3.21097L3.45884 15.883L7.08327 16.8891L7.09142 16.8869V16.8865L10.7125 15.883L10.7391 15.584L11.155 10.9259L11.1981 10.4508L7.09142 10.4508H4.7501L4.58838 8.6389Z" fill="#F5FFFF"/>
</g>
<defs>
<clipPath id="clip0_717_513">
<rect width="14.1828" height="20" fill="white"/>
</clipPath>
</defs>
</svg>
