<svg width="64" height="64" viewBox="0 0 64 64" fill="none" xmlns="http://www.w3.org/2000/svg">
<path d="M32 2C15.432 2 2 15.432 2 32C2 48.568 15.432 62 32 62C48.568 62 62 48.568 62 32C62 15.432 48.568 2 32 2ZM13.265 52.788C12.7885 52.3559 12.3269 51.9076 11.881 51.444L22.167 43.869V41.833H18.277L9.339 48.418C8.27252 46.9501 7.35119 45.3821 6.588 43.736L9.172 41.833H5.787C5.30498 40.552 4.91859 39.2371 4.631 37.899H26.1V59.369C24.7623 59.0811 23.4477 58.6947 22.167 58.213V46.227L13.265 52.788M37.9 23.039V4.631C39.25 4.922 40.563 5.309 41.833 5.787V17.772L50.734 11.211C51.212 11.642 51.671 12.092 52.118 12.555L41.833 20.13V22.166H45.721L54.66 15.582C55.7266 17.0491 56.6479 18.6165 57.411 20.262L54.826 22.166H58.213C58.695 23.447 59.0814 24.7619 59.369 26.1H37.9V23.039ZM13.239 11.234L22.165 17.793L22.167 5.787C23.4477 5.3053 24.7623 4.91892 26.1 4.631V26.1H4.631C4.922 24.75 5.309 23.437 5.787 22.166H9.174L6.589 20.262C6.838 19.724 7.098 19.192 7.38 18.673L12.118 22.166L18.762 22.165L9.506 15.347C10.6121 13.8566 11.8625 12.479 13.239 11.234M50.761 52.766L41.835 46.206L41.833 58.213C40.563 58.692 39.25 59.078 37.9 59.369V37.899H59.369C59.0809 39.237 58.6946 40.5519 58.213 41.833H54.824L57.411 43.738C57.1642 44.2756 56.9004 44.8052 56.62 45.326L51.882 41.833L45.236 41.834L54.494 48.652C53.3882 50.1429 52.1377 51.5209 50.761 52.766" fill="#F5FFFF"/>
</svg>
