<svg width="76" height="76" viewBox="0 0 76 76" fill="none" xmlns="http://www.w3.org/2000/svg">
<path d="M38 66.5H37.8385C37.539 66.4768 37.2472 66.3939 36.9802 66.2563C36.7132 66.1188 36.4764 65.9292 36.2836 65.6988L6.86531 30.6312C6.63592 30.369 6.47396 30.0549 6.39348 29.716C6.39348 29.6748 6.37448 29.6337 6.36498 29.5925C6.27527 29.062 6.3883 28.5172 6.68165 28.0662L6.74181 27.9775L18.2368 11.7167C18.4305 11.4376 18.6857 11.2069 18.9828 11.0422C19.2798 10.8774 19.6107 10.7832 19.95 10.7667L37.8416 9.5H38.1551L56.05 10.7667C56.3843 10.7838 56.7105 10.8765 57.0039 11.0378C57.2973 11.199 57.5504 11.4246 57.7441 11.6977L69.2613 27.987C69.4509 28.2468 69.5796 28.5459 69.6377 28.8623C69.6958 29.1786 69.6819 29.504 69.597 29.8142C69.5103 30.1177 69.3566 30.398 69.1473 30.6343L39.7195 65.6957C39.3645 66.1175 38.8681 66.3956 38.323 66.4778C38.216 66.4927 38.108 66.5001 38 66.5V66.5ZM25.1623 31.3848L38 59.0995L50.8376 31.3848H25.1623ZM55.689 31.3848L46.9426 50.2677L62.776 31.3848H55.689V31.3848ZM13.2145 31.3848L29.0478 50.2677L20.311 31.3848H13.2145V31.3848ZM57.532 18.981L56.7086 27.0592H63.2383L57.532 18.981ZM38 15.4185L28.0946 27.0592H47.9053L38 15.4185ZM18.468 18.981L12.7616 27.0592H19.2913L18.468 18.981V18.981ZM42.6771 14.1582L52.4115 25.5993L53.5166 14.9182L42.6771 14.1582V14.1582ZM33.3165 14.1582L22.4833 14.9182L23.5758 25.5993L33.3165 14.1582Z" fill="#14323C"/>
</svg>
